<?xml version="1.0" encoding="UTF-8"?>
<svg version="1.1" xmlns="http://www.w3.org/2000/svg" width="512" height="512">
<path d="M0 0 C105.6 0 211.2 0 320 0 C320 42.24 320 84.48 320 128 C288.8125 127.75 288.8125 127.75 279.04614258 127.57714844 C263.25727246 126.92724558 263.25727246 126.92724558 249.38334656 133.15765381 C246.99854987 135.61587226 245.0346537 138.24271951 243 141 C241.19077475 142.57403051 239.34171462 144.10481871 237.4375 145.5625 C233.48505532 148.73478143 229.70865996 152.04842302 226 155.5 C221.39668324 159.78339513 216.63808012 163.79440383 211.734375 167.734375 C207.88696737 170.92222703 204.24618357 174.31788201 200.60546875 177.73828125 C198 180 198 180 192 184 C192 165.52 192 147.04 192 128 C128.64 128 65.28 128 0 128 C0 85.76 0 43.52 0 0 Z " fill="#D5E8F7" transform="translate(96,32)"/>
<path d="M0 0 C1.69865456 -0.00021904 1.69865456 -0.00021904 3.43162537 -0.0004425 C7.15959617 0.0002519 10.88751648 0.00802223 14.61547852 0.01586914 C17.20622226 0.01773499 19.79696635 0.01915811 22.38771057 0.02015686 C28.50028291 0.02357962 34.61283453 0.03145415 40.72539908 0.04150635 C47.68794154 0.05270638 54.65048489 0.05818772 61.61303413 0.06320179 C75.92766066 0.07363787 90.24227207 0.091213 104.55688477 0.11352539 C104.57396973 1.86104959 104.58611063 3.60862254 104.59619141 5.35620117 C104.60713585 6.81595871 104.60713585 6.81595871 104.61830139 8.3052063 C104.38693091 18.88478703 100.35655993 28.479384 95.04516602 37.44165039 C93.24294446 40.61897446 93.24294446 40.61897446 92.55688477 44.11352539 C93.54927813 46.75990771 94.83525607 49.16826531 96.13500977 51.67602539 C100.18644778 61.47071069 100.73317072 70.09246086 100.20779419 80.60632324 C99.62395258 94.2743033 101.16622463 103.92519083 108.8737793 115.45581055 C112.07093989 120.50430056 114.76474912 125.84683346 117.54464722 131.13293457 C119.15621759 134.18670229 120.79568137 137.22523125 122.43188477 140.26586914 C123.4783028 142.2125413 124.52069366 144.16139036 125.55688477 146.11352539 C125.95133789 146.8322583 126.34579102 147.55099121 126.75219727 148.29150391 C127.55688477 150.11352539 127.55688477 150.11352539 127.55688477 153.11352539 C124.03617416 155.11277249 120.51237472 157.10644708 116.9855957 159.0949707 C115.78583573 159.77247457 114.5869366 160.4515052 113.38891602 161.13208008 C111.66852308 162.10905819 109.94478067 163.08013071 108.22094727 164.05102539 C107.18405762 164.63754883 106.14716797 165.22407227 105.07885742 165.82836914 C102.55688477 167.11352539 102.55688477 167.11352539 100.55688477 167.11352539 C100.58306885 168.03053223 100.60925293 168.94753906 100.63623047 169.89233398 C100.72216056 173.34041473 100.78447007 176.78733534 100.83154297 180.23608398 C100.85647314 181.71999218 100.89043102 183.20378034 100.93408203 184.68725586 C101.23893193 195.32472399 100.32656461 203.17576069 93.45141602 211.73461914 C92.7643457 212.3340332 92.07727539 212.93344727 91.36938477 213.55102539 C90.69520508 214.16848633 90.02102539 214.78594727 89.32641602 215.42211914 C80.16646134 221.01628046 70.31349863 220.48052999 59.93188477 220.30102539 C54.85813477 220.23915039 49.78438477 220.17727539 44.55688477 220.11352539 C44.55688477 231.99352539 44.55688477 243.87352539 44.55688477 256.11352539 C9.57688477 256.11352539 -25.40311523 256.11352539 -61.44311523 256.11352539 C-56.44311523 230.11352539 -56.44311523 230.11352539 -54.19311523 219.86352539 C-50.5007146 202.37715651 -50.30080363 186.32401054 -59.97436523 170.62915039 C-61.74184558 168.07797593 -63.57453692 165.59165935 -65.44311523 163.11352539 C-81.64652534 141.53584991 -91.8860548 119.78277831 -91.75561523 92.30102539 C-91.74997559 91.05998047 -91.74433594 89.81893555 -91.73852539 88.5402832 C-91.62483543 79.98314385 -91.12810917 72.29055239 -88.44311523 64.11352539 C-88.24975586 63.49155273 -88.05639648 62.86958008 -87.85717773 62.22875977 C-81.0280144 40.58199822 -66.69495306 21.68878067 -46.43139648 10.92211914 C-31.51390445 3.3898121 -16.69499072 -0.05665128 0 0 Z " fill="#FECFC1" transform="translate(91.443115234375,223.886474609375)"/>
<path d="M0 0 C1.01980453 0.00031723 1.01980453 0.00031723 2.06021118 0.00064087 C17.98931676 0.04996133 32.60070816 2.21709116 47 9.375 C47.93070313 9.82746094 48.86140625 10.27992188 49.8203125 10.74609375 C56.54814152 14.20371061 62.31799023 18.39729295 68 23.375 C68.67675781 23.95636719 69.35351562 24.53773438 70.05078125 25.13671875 C80.6236601 34.90444851 87.62239539 47.80927432 92 61.375 C92.61875 63.22544922 92.61875 63.22544922 93.25 65.11328125 C101.26307632 91.82241619 95.72453781 119.17468943 83.484375 143.37109375 C79.84198697 150.00281539 75.41483759 155.90098046 70.875 161.9375 C59.43266475 177.24307491 54.28279059 192.15707791 57 211.375 C58.29029129 218.83717239 59.94347038 226.22882439 61.5625 233.625 C62.2000956 236.57703636 62.83502169 239.52962813 63.46824646 242.48260498 C63.86020262 244.30623447 64.25516399 246.12922122 64.65345764 247.95147705 C64.83041672 248.76703064 65.00737579 249.58258423 65.18969727 250.42285156 C65.42499901 251.498685 65.42499901 251.498685 65.66505432 252.59625244 C66 254.375 66 254.375 66 256.375 C31.02 256.375 -3.96 256.375 -40 256.375 C-40 244.495 -40 232.615 -40 220.375 C-42.85140625 220.69984375 -45.7028125 221.0246875 -48.640625 221.359375 C-51.51311756 221.57990193 -54.3845572 221.74854446 -57.26074219 221.91308594 C-59.20797003 222.05112855 -61.15245849 222.24017444 -63.08886719 222.48730469 C-75.00470365 223.96591213 -84.07883128 221.40649878 -93.61002731 214.24607658 C-104.5545472 205.40275329 -112.5131463 195.73448253 -114.28222656 181.45507812 C-115.32934191 170.13468719 -114.77982254 158.7920173 -114.15576172 147.4631958 C-113.94733837 143.16364762 -113.8601987 138.86557429 -113.77926636 134.56200981 C-113.1156812 99.44388609 -109.90200392 66.93314219 -86 39.375 C-85.33613281 38.56675781 -84.67226563 37.75851562 -83.98828125 36.92578125 C-63.0588546 12.28244525 -31.88294696 -0.04113423 0 0 Z " fill="#23CFF6" transform="translate(416,223.625)"/>
<path d="M0 0 C52.8 0 105.6 0 160 0 C160 16.17 160 32.34 160 49 C154.72 49 149.44 49 144 49 C144 58.9 144 68.8 144 79 C149.28 79 154.56 79 160 79 C160 95.17 160 111.34 160 128 C107.2 128 54.4 128 0 128 C0 85.76 0 43.52 0 0 Z " fill="#F0F4FA" transform="translate(96,32)"/>
<path d="M0 0 C1.69865456 -0.00021904 1.69865456 -0.00021904 3.43162537 -0.0004425 C7.15959617 0.0002519 10.88751648 0.00802223 14.61547852 0.01586914 C17.20622226 0.01773499 19.79696635 0.01915811 22.38771057 0.02015686 C28.50028291 0.02357962 34.61283453 0.03145415 40.72539908 0.04150635 C47.68794154 0.05270638 54.65048489 0.05818772 61.61303413 0.06320179 C75.92766066 0.07363787 90.24227207 0.091213 104.55688477 0.11352539 C104.57396973 1.86104959 104.58611063 3.60862254 104.59619141 5.35620117 C104.60713585 6.81595871 104.60713585 6.81595871 104.61830139 8.3052063 C104.26611673 24.40910134 95.9349696 39.19056395 84.55688477 50.11352539 C70.78056037 62.8747522 55.30846847 69.49621077 36.55688477 69.11352539 C36.63938477 70.18602539 36.72188477 71.25852539 36.80688477 72.36352539 C36.74081398 81.6960238 33.15491759 89.63570054 26.71313477 96.26977539 C21.36699167 100.84111514 15.35368989 103.29347214 8.30688477 103.17602539 C6.45063477 103.14508789 6.45063477 103.14508789 4.55688477 103.11352539 C4.63938477 104.16540039 4.72188477 105.21727539 4.80688477 106.30102539 C4.7583638 120.03245863 -2.84377346 133.08577554 -12.03295898 142.76586914 C-23.82206426 154.24926018 -38.10363357 161.62142938 -54.44311523 164.11352539 C-55.24233398 164.29657227 -56.04155273 164.47961914 -56.86499023 164.66821289 C-59.76076024 165.0666242 -61.63622922 164.98963922 -64.44311523 164.11352539 C-80.10456358 150.22736544 -90.36681124 123.28581495 -91.64868164 102.83374023 C-91.74629786 99.32005685 -91.77229878 95.81600911 -91.75561523 92.30102539 C-91.74997559 91.05998047 -91.74433594 89.81893555 -91.73852539 88.5402832 C-91.62483543 79.98314385 -91.12810917 72.29055239 -88.44311523 64.11352539 C-88.24975586 63.49155273 -88.05639648 62.86958008 -87.85717773 62.22875977 C-81.0280144 40.58199822 -66.69495306 21.68878067 -46.43139648 10.92211914 C-31.51390445 3.3898121 -16.69499072 -0.05665128 0 0 Z " fill="#6152A8" transform="translate(91.443115234375,223.886474609375)"/>
<path d="M0 0 C1.01980453 0.00031723 1.01980453 0.00031723 2.06021118 0.00064087 C17.98931676 0.04996133 32.60070816 2.21709116 47 9.375 C47.93070313 9.82746094 48.86140625 10.27992188 49.8203125 10.74609375 C62.28774179 17.15344947 73.12941915 26.12894919 80 38.375 C79.39865234 38.94081787 78.79730469 39.50663574 78.17773438 40.08959961 C72.48623898 45.45898562 66.83518595 50.86721507 61.22473145 56.3212738 C58.33951226 59.12337497 55.44156504 61.90883874 52.5078125 64.66015625 C49.67076535 67.32187437 46.87600883 70.02215353 44.10473633 72.75222778 C43.0469466 73.78070822 41.97528041 74.79513345 40.8894043 75.79391479 C34.14462083 81.98462702 34.14462083 81.98462702 31.43017578 90.45727539 C31.38450995 93.2462523 31.5819353 95.86604795 31.83837891 98.65820312 C32.15575151 105.95681411 28.68809651 112.46061187 24.4375 118.25 C19.39325043 123.63757545 10.52778112 127.99245894 3.1796875 128.61328125 C-7.16775688 128.84567066 -13.7193876 126.32005506 -22 120.375 C-25.00911224 121.7238982 -27.09916363 123.22665713 -29.41796875 125.5625 C-30.03220703 126.17867188 -30.64644531 126.79484375 -31.27929688 127.4296875 C-31.90900391 128.07164062 -32.53871094 128.71359375 -33.1875 129.375 C-33.82880859 130.01695312 -34.47011719 130.65890625 -35.13085938 131.3203125 C-38.47060322 134.54705342 -38.47060322 134.54705342 -41 138.375 C-64.43 138.375 -87.86 138.375 -112 138.375 C-112.0825 131.98125 -112.165 125.5875 -112.25 119 C-112.28641602 117.02338379 -112.32283203 115.04676758 -112.36035156 113.01025391 C-112.65112971 85.6841431 -103.99809235 60.12614663 -86 39.375 C-85.33613281 38.56675781 -84.67226563 37.75851562 -83.98828125 36.92578125 C-63.0588546 12.28244525 -31.88294696 -0.04113423 0 0 Z " fill="#619EF2" transform="translate(416,223.625)"/>
<path d="M0 0 C2.9668081 1.12068299 5.29393393 2.20012523 7.9375 4 C13.0928729 7.36677414 17.97288398 8.18167846 24 9 C30.08022089 53.42130642 30.08022089 53.42130642 20.53125 67.99511719 C11.56962618 79.7399101 -0.19337878 89.24068281 -12 98 C-12.65401794 98.5366478 -13.30803589 99.07329559 -13.98187256 99.62620544 C-23.94143393 106.40595132 -46.04044921 103.56972849 -57.2800293 101.64825439 C-68.91475487 98.87533409 -78.35620305 90.57549981 -84.70294189 80.64466858 C-94.14517892 63.08861754 -89.24996636 37.03522887 -88 19 C-64.57 19 -41.14 19 -17 19 C-16.34 17.68 -15.68 16.36 -15 15 C-13.39599609 13.16894531 -13.39599609 13.16894531 -11.5234375 11.328125 C-10.853125 10.66425781 -10.1828125 10.00039063 -9.4921875 9.31640625 C-8.44417969 8.29353516 -8.44417969 8.29353516 -7.375 7.25 C-6.31539062 6.20392578 -6.31539062 6.20392578 -5.234375 5.13671875 C-3.49401297 3.41987512 -1.74915019 1.70788168 0 0 Z " fill="#34F6F6" transform="translate(392,343)"/>
<path d="M0 0 C1.01980453 0.00031723 1.01980453 0.00031723 2.06021118 0.00064087 C23.00931102 0.06550447 39.79394039 4.9459383 58 15.375 C53.16088769 25.28999451 46.90284687 34.21289494 39.875 42.6875 C39.42730003 43.22915047 38.97960007 43.77080093 38.51833344 44.32886505 C27.12506964 57.79947644 14.59236799 65.64598016 -3.16210938 67.43798828 C-35.91271795 70.03887806 -69.34445147 67.25342034 -102 64.375 C-101.04757444 62.44412265 -100.09216786 60.51471552 -99.13549805 58.5859375 C-98.60377487 57.51134277 -98.0720517 56.43674805 -97.5242157 55.32958984 C-84.57987242 30.23784907 -59.71428031 13.28647437 -33.62109375 4.58129883 C-22.41226145 1.03393837 -11.74256197 -0.01514983 0 0 Z " fill="#33F7F7" transform="translate(416,223.625)"/>
<path d="M0 0 C33 0 66 0 100 0 C100 18.57273115 95.54876121 33.9944384 82.44140625 47.65625 C68.61184711 60.93262677 53.14315105 69.26210694 33.72265625 69.03515625 C33.15417969 69.02355469 32.58570313 69.01195312 32 69 C32.0825 70.0725 32.165 71.145 32.25 72.25 C32.18392921 81.58249841 28.59803282 89.52217515 22.15625 96.15625 C15.20645168 102.09883117 9.02968291 103 0 103 C0 69.01 0 35.02 0 0 Z " fill="#503795" transform="translate(96,224)"/>
<path d="M0 0 C-0.22816406 1.06476563 -0.45632813 2.12953125 -0.69140625 3.2265625 C-4.25904927 20.78153028 -1.21799177 35.97966675 2.5625 53.25 C3.2000956 56.20203636 3.83502169 59.15462813 4.46824646 62.10760498 C4.86020262 63.93123447 5.25516399 65.75422122 5.65345764 67.57647705 C5.83041672 68.39203064 6.00737579 69.20758423 6.18969727 70.04785156 C6.34656509 70.76507385 6.50343292 71.48229614 6.66505432 72.22125244 C7 74 7 74 7 76 C-27.98 76 -62.96 76 -99 76 C-99 63.79 -99 51.58 -99 39 C-95.04 35.37 -91.08 31.74 -87 28 C-85.10773874 25.58814936 -83.43405625 23.33611569 -81.77734375 20.80078125 C-61.09995386 -7.44740958 -31.63828237 -2.90581588 0 0 Z " fill="#4E6BFF" transform="translate(475,404)"/>
<path d="M0 0 C0.33 0 0.66 0 1 0 C1 47.19 1 94.38 1 143 C-20.78 143 -42.56 143 -65 143 C-60 117 -60 117 -57.75 106.75 C-53.28345956 85.59748124 -55.95835375 69.60634857 -67 51 C-65.80246094 50.85304688 -64.60492188 50.70609375 -63.37109375 50.5546875 C-43.43397526 47.89942394 -25.19361749 40.96049091 -12 25 C-6.11331131 17.24981028 -2.90985479 9.18548633 0 0 Z " fill="#FEDCCC" transform="translate(95,337)"/>
<path d="M0 0 C4.90561761 2.72317584 8.68957782 5.2803588 12.6875 9.3125 C13.59886719 10.21613281 14.51023437 11.11976563 15.44921875 12.05078125 C18.20761362 15.24004331 19.95936834 18.3239397 22 22 C21.39865234 22.56581787 20.79730469 23.13163574 20.17773438 23.71459961 C14.48623898 29.08398562 8.83518595 34.49221507 3.22473145 39.9462738 C0.33951226 42.74837497 -2.55843496 45.53383874 -5.4921875 48.28515625 C-8.32923465 50.94687437 -11.12399117 53.64715353 -13.89526367 56.37722778 C-14.9530534 57.40570822 -16.02471959 58.42013345 -17.1105957 59.41891479 C-23.85537917 65.60962702 -23.85537917 65.60962702 -26.56982422 74.08227539 C-26.61549005 76.8712523 -26.4180647 79.49104795 -26.16162109 82.28320312 C-25.84424849 89.58181411 -29.31190349 96.08561187 -33.5625 101.875 C-38.60674957 107.26257545 -47.47221888 111.61745894 -54.8203125 112.23828125 C-62.21377368 112.40432825 -67.64458785 111.86641044 -74 108 C-74.69867188 107.5875 -75.39734375 107.175 -76.1171875 106.75 C-82.81084898 102.30439841 -87.10142834 95.75159304 -89.375 88.0625 C-91.31856096 78.02076838 -89.95385167 70.53767572 -84.71484375 61.875 C-79.90369052 54.79898633 -73.26875944 50.19011542 -65 48 C-63.01375449 48.08905059 -61.02643253 48.18250252 -59.04619503 48.36071777 C-53.64095071 48.78722834 -49.46136747 48.8071433 -44.64059448 46.14453125 C-41.468607 43.42647458 -38.65421659 40.57655651 -35.83984375 37.5 C-34.79176537 36.42013047 -33.73980786 35.34401382 -32.68421936 34.27148438 C-29.94371645 31.46671025 -27.25816631 28.61481031 -24.58172607 25.74902344 C-21.83063269 22.82258474 -19.02947173 19.94492144 -16.23242188 17.0625 C-10.77208113 11.42097953 -5.36894553 5.72856371 0 0 Z " fill="#6053A8" transform="translate(474,240)"/>
<path d="M0 0 C18.61971831 0 18.61971831 0 25.75 1.6875 C26.54728516 1.86684082 27.34457031 2.04618164 28.16601562 2.23095703 C38.97069827 4.78339927 48.40606801 9.50426337 58 15 C56.47704606 18.55179151 54.38203113 20.92142378 51.70898438 23.69262695 C50.82045776 24.61650711 49.93193115 25.54038727 49.01647949 26.49226379 C48.04317981 27.49185582 47.06891201 28.49050596 46.09375 29.48828125 C45.60056778 29.99335897 45.10738556 30.4984367 44.59925842 31.01881981 C41.9879875 33.68928191 39.36909762 36.35203905 36.74511719 39.01000977 C34.58034463 41.20595414 32.43244598 43.41656163 30.29785156 45.6418457 C27.71338041 48.33602088 25.10274203 51.00199889 22.4712677 53.65025902 C21.47630003 54.66046029 20.49071866 55.68000029 19.5151825 56.70897865 C18.14527085 58.14969723 16.73626608 59.55293132 15.32617188 60.9543457 C14.53722534 61.76168655 13.74827881 62.5690274 12.9354248 63.40083313 C10 65 10 65 0 64 C0 42.88 0 21.76 0 0 Z " fill="#23CFF7" transform="translate(416,224)"/>
<path d="M0 0 C0 24.75 0 49.5 0 75 C-13.2 75 -26.4 75 -40 75 C-40.2475 69.121875 -40.495 63.24375 -40.75 57.1875 C-40.85924805 55.35598389 -40.96849609 53.52446777 -41.08105469 51.63745117 C-41.30286953 45.39099805 -41.47188615 40.08634251 -37.77416992 34.8449707 C-35.19253532 32.5069149 -32.58868642 30.43319357 -29.78131104 28.38607788 C-26.56538035 25.88369042 -23.79491147 22.93433064 -20.95703125 20.01953125 C-19.77095719 18.82410046 -18.58410638 17.62943985 -17.39648438 16.43554688 C-16.20153041 15.228154 -15.00687212 14.02046844 -13.8125 12.8125 C-11.40519536 10.37866163 -8.99460331 7.94814688 -6.58203125 5.51953125 C-6.03424515 4.96344681 -5.48645905 4.40736237 -4.92207336 3.83442688 C-1.11272484 0 -1.11272484 0 0 0 Z " fill="#619EF3" transform="translate(416,405)"/>
<path d="M0 0 C4.90561761 2.72317584 8.68957782 5.2803588 12.6875 9.3125 C13.59886719 10.21613281 14.51023437 11.11976563 15.44921875 12.05078125 C18.20761362 15.24004331 19.95936834 18.3239397 22 22 C15.78198639 28.26427812 9.55864253 34.52319665 3.32835579 40.77526855 C0.43580344 43.67827471 -2.45485243 46.58311883 -5.34130859 49.4921875 C-8.12502189 52.29757234 -10.91353969 55.09809627 -13.70550919 57.89526367 C-14.77182044 58.96528094 -15.83636483 60.03706184 -16.89913559 61.1105957 C-18.38373664 62.60963608 -19.87439878 64.10237991 -21.36669922 65.59375 C-22.21497284 66.44646484 -23.06324646 67.29917969 -23.93722534 68.17773438 C-26 70 -26 70 -28 70 C-28.3403125 69.27554688 -28.680625 68.55109375 -29.03125 67.8046875 C-33.61262315 58.6663102 -38.7129127 54.17918929 -48 50 C-46.47102424 46.38307227 -44.32184367 44.0796478 -41.55029297 41.32324219 C-40.16908768 39.94226349 -40.16908768 39.94226349 -38.75997925 38.53338623 C-37.75415535 37.5377747 -36.7482222 36.54227352 -35.7421875 35.546875 C-34.71327851 34.52169807 -33.68481163 33.49607725 -32.6567688 32.47003174 C-29.95518419 29.77606836 -27.24764659 27.08816632 -24.53881836 24.40148926 C-21.77355511 21.65671696 -19.01397367 18.90624528 -16.25390625 16.15625 C-10.84147726 10.76524427 -5.42274562 5.38063036 0 0 Z " fill="#4E6DFE" transform="translate(474,240)"/>
<path d="M0 0 C10.12572986 1.01257299 17.47364666 2.72704016 24.4375 10.375 C30.98685759 18.89295062 33.02998639 27.33729995 32 38 C29.63064479 46.56848717 25.88571373 53.92897994 18.265625 58.71875 C11.67075268 62.26725998 7.87589219 63.12490087 0 64 C0 42.88 0 21.76 0 0 Z " fill="#4F3895" transform="translate(416,288)"/>
<path d="M0 0 C10.56 0 21.12 0 32 0 C32 9.9 32 19.8 32 30 C21.44 30 10.88 30 0 30 C0 20.1 0 10.2 0 0 Z " fill="#8DB6E0" transform="translate(304,81)"/>
<path d="M0 0 C10.56 0 21.12 0 32 0 C32 9.9 32 19.8 32 30 C21.44 30 10.88 30 0 30 C0 20.1 0 10.2 0 0 Z " fill="#8DB6E0" transform="translate(240,81)"/>
<path d="M0 0 C10.56 0 21.12 0 32 0 C32 9.9 32 19.8 32 30 C21.44 30 10.88 30 0 30 C0 20.1 0 10.2 0 0 Z " fill="#B2D0F0" transform="translate(176,81)"/>
<path d="M0 0 C5.28 0 10.56 0 16 0 C16 9.9 16 19.8 16 30 C10.72 30 5.44 30 0 30 C0 20.1 0 10.2 0 0 Z " fill="#B2D0F0" transform="translate(240,81)"/>
</svg>
